<?xml version="1.0" encoding="utf-8"?>
<!-- Generator: Adobe Illustrator 27.7.0, SVG Export Plug-In . SVG Version: 6.00 Build 0)  -->
<svg version="1.1" id="Layer_1" xmlns="http://www.w3.org/2000/svg" xmlns:xlink="http://www.w3.org/1999/xlink" x="0px" y="0px"
	 viewBox="0 0 500 500" style="enable-background:new 0 0 500 500;" xml:space="preserve">
<style type="text/css">
	.st0{fill:none;}
	.st1{fill:#00B900;}
</style>
<rect class="st0" width="500" height="500"/>
<g>
	<path class="st1" d="M132,138.6h-0.1h-0.1l0,0l0.1,0.1C131.9,138.7,132,138.7,132,138.6L132,138.6z"/>
	<path class="st1" d="M126.8,179.6c1.3,2.8,2.4,4.9,2.8,5.5l0,0l0,0l0,0l0,0c0.6-0.4,2.6-1.6,4.9-3.9c2.3-2.3,4.9-5.8,6.5-10.3
		s2.2-10,0.9-15.5s-4.5-10.8-10-16.5c-4.9,6-7.9,12-8.9,17.1c-1,5.2-0.6,9.5,0.3,13.4C124.2,173.2,125.6,176.8,126.8,179.6z"/>
	<path class="st1" d="M185.1,129.6c-0.6-0.4-2.6-1.5-5.5-2.8c-2.8-1.3-6.4-2.7-10.3-3.6c-3.9-0.9-8.3-1.2-13.4-0.2
		c-5.1,1-11.1,4-17.1,8.9c5.7,5.5,11,8.7,16.5,10c5.5,1.4,11,0.8,15.5-0.9c4.5-1.6,8-4.2,10.3-6.5
		C183.5,132.2,184.7,130.2,185.1,129.6L185.1,129.6L185.1,129.6L185.1,129.6L185.1,129.6z"/>
	<path class="st1" d="M122.6,81.3L122.6,81.3c4.6,6.5,9.2,10.6,13.7,13.1s9,3.5,13.2,3.7c8.4,0.4,15.8-2.4,17.1-2.9l0,0l0,0l0,0l0,0
		c-0.5-1.3-3.7-8.6-11-13.9c-3.7-2.7-8.4-4.8-14.1-5.1C136,75.9,129.5,77.3,122.6,81.3L122.6,81.3L122.6,81.3
		C122.5,81.4,122.6,81.3,122.6,81.3z"/>
	<path class="st1" d="M81.4,155.7c5.3,7.3,12.6,10.5,13.9,11l0,0l0,0l0,0l0,0c0.6-1.3,3.3-8.7,2.9-17.1c-0.2-4.2-1.2-8.7-3.7-13.2
		s-6.6-9.1-13.2-13.6l0.1-0.1l0.1-0.1l0,0l-0.1,0.1c-4.1,6.9-5.5,13.3-5.1,18.9C76.6,147.2,78.8,152,81.4,155.7z"/>
	<path class="st1" d="M95.3,333.3L95.3,333.3L95.3,333.3L95.3,333.3c-1.3,0.6-8.6,3.7-13.9,11.1c-2.7,3.7-4.8,8.4-5.1,14.1
		c-0.4,5.6,1,12.1,5.1,18.9l0.1,0.1l0,0l-0.1-0.1l-0.1-0.1c6.6-4.5,10.7-9.1,13.2-13.6s3.5-9,3.7-13.2
		C98.6,342,95.9,334.6,95.3,333.3L95.3,333.3z"/>
	<path class="st1" d="M40.7,220.8v-0.1c7.9,1.5,14,1.1,19-0.3c5-1.4,8.8-3.9,12-6.7c6.3-5.7,9.5-12.9,10-14.2l0,0l0,0l0,0l0,0
		c-1.3-0.5-8.7-3.4-17.6-2c-4.5,0.7-9.3,2.6-13.6,6.3S42.7,213.1,40.7,220.8L40.7,220.8L40.7,220.8
		C40.7,220.9,40.7,220.8,40.7,220.8z"/>
	<path class="st1" d="M81.7,300.5L81.7,300.5L81.7,300.5L81.7,300.5c-0.5-1.3-3.8-8.5-10.1-14.2c-3.1-2.9-7-5.3-12-6.7
		c-5-1.4-11.1-1.8-19-0.3v-0.1v-0.1l0,0v0.1c2,7.7,5.5,13.3,9.8,17s9.1,5.6,13.6,6.3C73,303.9,80.4,301,81.7,300.5L81.7,300.5z"/>
	<path class="st1" d="M138.6,131.8C138.6,131.8,138.6,131.9,138.6,131.8v0.2l0,0l0.1-0.1C138.7,131.9,138.7,131.8,138.6,131.8
		L138.6,131.8z"/>
	<path class="st1" d="M131.8,361.4C131.8,361.4,131.9,361.4,131.8,361.4h0.2l0,0l-0.1-0.1C131.9,361.3,131.8,361.3,131.8,361.4
		L131.8,361.4z"/>
	<path class="st1" d="M404.7,166.7h0.2h0.2l0,0c1-0.5,8.4-3.7,13.7-11c2.7-3.7,4.7-8.4,5.1-14.1c0.4-5.6-1-12.1-5.1-18.9l-0.1-0.1
		l0,0l0.1,0.1l0.1,0.1c-6.6,4.5-10.7,9.1-13.2,13.6s-3.5,9-3.7,13.2C401.4,158,404.1,165.4,404.7,166.7L404.7,166.7z"/>
	<path class="st1" d="M199.5,81.7L199.5,81.7L199.5,81.7L199.5,81.7c1.3-0.5,8.5-3.8,14.2-10.1c2.9-3.1,5.3-7,6.7-12
		s1.8-11.1,0.3-19h0.1h0.1l0,0h-0.1c-7.7,2-13.3,5.5-17,9.8s-5.6,9.1-6.3,13.6C196.1,73,199,80.4,199.5,81.7L199.5,81.7z"/>
	<path class="st1" d="M333.3,95.3L333.3,95.3c1.3,0.5,8.7,3.3,17.1,2.9c4.2-0.2,8.7-1.2,13.2-3.7s9.1-6.6,13.6-13.2l0.1,0.1l0.1,0.1
		l0,0l-0.1-0.1c-6.9-4.1-13.3-5.5-18.9-5.1s-10.4,2.5-14.1,5.1C337,86.7,333.8,94,333.3,95.3L333.3,95.3L333.3,95.3L333.3,95.3z"/>
	<path class="st1" d="M418.3,199.5L418.3,199.5L418.3,199.5L418.3,199.5c0.5,1.3,3.8,8.5,10.1,14.2c3.1,2.9,7,5.3,12,6.7
		s11.1,1.8,19,0.3v0.1v0.1l0,0v-0.1c-2-7.7-5.6-13.3-9.8-17c-4.3-3.7-9.1-5.6-13.6-6.3C427,196.1,419.6,199,418.3,199.5L418.3,199.5
		z"/>
	<path class="st1" d="M369,138.6h-0.4h-0.2h-0.1c-5.6,5.7-8.8,11.1-10.2,16.6c-1.4,5.5-0.8,11,0.8,15.5c1.6,4.5,4.2,8,6.5,10.3
		s4.3,3.6,4.9,4l0,0l0,0l0,0l0,0c0.4-0.6,1.5-2.6,2.8-5.5c1.3-2.8,2.7-6.4,3.6-10.3c0.9-3.9,1.7-8.3,0.7-13.4
		C376.5,150.8,374,144.7,369,138.6L369,138.6z"/>
	<path class="st1" d="M254.9,87.7c0.1,8,1.6,14.1,4.6,18.9c2.9,4.8,7.2,8.3,11.6,10.4s8.7,2.7,11.9,2.7c3.3,0,5.6-0.5,6.2-0.7l0,0
		l0,0l0,0l0,0c-0.2-0.7-0.8-2.9-1.9-5.8s-2.6-6.4-4.7-9.9c-2.1-3.4-4.9-6.8-9.3-9.7C269,90.7,262.9,88.1,254.9,87.7L254.9,87.7
		L254.9,87.7C254.9,87.6,254.8,87.6,254.9,87.7L254.9,87.7z"/>
	<path class="st1" d="M314.9,129.6L314.9,129.6L314.9,129.6L314.9,129.6L314.9,129.6c0.4,0.6,1.6,2.6,3.9,4.9
		c2.3,2.3,5.8,4.9,10.3,6.5s10,2.3,15.5,1s10.9-4,16.6-10l0,0c-6-5-12.1-8-17.2-9c-5.2-1-9.5-0.6-13.4,0.3s-7.5,2.3-10.3,3.6
		S315.5,129.3,314.9,129.6z"/>
	<path class="st1" d="M212.7,113.2c-1.1,2.9-1.7,5.2-1.9,5.8l0,0l0,0l0,0l0,0c0.7,0.2,3,0.7,6.2,0.7c3.3,0,7.6-0.6,11.9-2.7
		c4.4-2,8.7-5.5,11.6-10.4c3-4.9,4.5-10.9,4.6-18.9l0,0l0,0l0,0l0,0c-8,0.5-14.1,3-18.4,5.9c-4.4,2.9-7.1,6.3-9.3,9.7
		C215.3,106.7,213.8,110.3,212.7,113.2z"/>
	<path class="st1" d="M279.6,59.7c1.4,5,3.9,8.8,6.7,12c5.7,6.3,12.9,9.5,14.2,10l0,0l0,0l0,0l0,0c0.5-1.3,3.4-8.7,2-17.6
		c-0.7-4.5-2.6-9.3-6.3-13.6c-3.7-4.3-9.2-7.8-17-9.8h-0.1l0,0h0.1h0.1C277.8,48.6,278.2,54.7,279.6,59.7z"/>
	<path class="st1" d="M418.6,377.4C418.7,377.4,418.7,377.4,418.6,377.4l0.1-0.1l0,0C418.7,377.3,418.7,377.3,418.6,377.4
		L418.6,377.4z"/>
	<path class="st1" d="M87.6,254.9c0.5,8,3,14.1,5.9,18.4c2.9,4.4,6.3,7.1,9.7,9.3c3.4,2.1,7,3.6,9.9,4.7s5.2,1.7,5.8,1.9l0,0l0,0
		l0,0l0,0c0.2-0.7,0.7-3,0.7-6.2c0-3.3-0.6-7.6-2.7-11.9c-2-4.4-5.5-8.7-10.4-11.6C101.7,256.5,95.7,255,87.6,254.9L87.6,254.9
		C87.6,254.8,87.6,254.9,87.6,254.9L87.6,254.9L87.6,254.9z"/>
	<path class="st1" d="M119,210.8L119,210.8L119,210.8c-0.7,0.2-2.9,0.8-5.8,1.9c-2.9,1.1-6.4,2.6-9.9,4.7c-3.4,2.1-6.8,4.9-9.7,9.3
		c-2.9,4.3-5.4,10.4-5.9,18.4l0,0l0,0l0,0l0,0c8-0.1,14.1-1.6,18.9-4.6c4.8-2.9,8.3-7.2,10.4-11.6c2.1-4.4,2.7-8.7,2.7-11.9
		C119.7,213.8,119.2,211.5,119,210.8L119,210.8L119,210.8z"/>
	<path class="st1" d="M381,289.2L381,289.2L381,289.2c0.7-0.2,2.9-0.8,5.8-1.9s6.4-2.6,9.9-4.7c3.4-2.1,6.8-4.9,9.7-9.3
		c2.9-4.3,5.4-10.4,5.9-18.4l0,0l0,0l0,0l0,0c-8,0.1-14.1,1.6-18.9,4.6c-4.8,2.9-8.3,7.2-10.4,11.6s-2.7,8.7-2.7,11.9
		S380.8,288.5,381,289.2L381,289.2L381,289.2z"/>
	<path class="st1" d="M396.5,316c-2.2-3-4.7-5.8-7.4-8.4c3.8,0.1,7.5-0.1,11.2-0.7c5.4-0.9,10.6-2.5,15.4-4.7
		c-5.2,0.6-10.5,0.6-15.5-0.1s-9.8-2.2-14.2-4.2c-4.5-2-8.7-4.6-12.9-7.4c-4.2-2.8-8.4-6-13.6-9c-1.3-0.7-2.7-1.5-4.2-2.2
		c-0.8-0.3-1.5-0.7-2.4-1l-0.3-0.1l-0.2-0.1h-0.1l0,0c0,0,0,0-0.1,0h-0.1l-0.3-0.1c-0.4-0.1-0.9-0.3-1.3-0.4
		c-2.2-0.7-4.6-1.2-6.9-1.4c2.3-8.2,3.5-16.9,3.5-25.8c0-9.1-1.3-17.9-3.6-26.3c2.4-0.3,4.8-0.8,7.1-1.5c0.4-0.1,0.9-0.3,1.3-0.4
		l0.3-0.1h0.1c0.1,0,0.1,0,0.1,0l0,0h0.1l0.2-0.1l0.3-0.1c0.9-0.3,1.6-0.6,2.4-1c1.5-0.7,2.9-1.4,4.2-2.2c5.2-3,9.4-6.1,13.6-9
		c4.2-2.8,8.4-5.4,12.9-7.4s9.2-3.5,14.2-4.2c5-0.8,10.2-0.8,15.5-0.1c-4.8-2.2-10-3.8-15.4-4.7c-3.6-0.6-7.4-0.8-11.2-0.7
		c2.7-2.6,5.2-5.4,7.4-8.4c3.2-4.5,5.7-9.3,7.6-14.2c-3.3,4.2-7,7.9-11,10.9c-4.1,3-8.5,5.3-13.1,7s-9.4,2.9-14.3,3.9
		c-5,1-10.2,1.7-16,3.3c-1.5,0.4-3,0.9-4.5,1.4c-0.8,0.3-1.5,0.6-2.4,1l-0.3,0.2l-0.2,0.1h-0.1l0,0c0,0,0,0-0.1,0.1h-0.1l-0.3,0.1
		c-0.4,0.2-0.8,0.4-1.2,0.6c-2.1,1.1-4.2,2.5-6.1,4c-8.7-15.3-21.4-28.1-36.8-36.8c1.5-1.9,2.9-3.9,4-6.1c0.2-0.4,0.4-0.8,0.6-1.2
		l0.1-0.3v-0.1c0.1-0.1,0-0.1,0.1-0.1l0,0v-0.1l0.1-0.2l0.2-0.3c0.4-0.8,0.7-1.6,1-2.4c0.6-1.5,1-3,1.4-4.5c1.6-5.8,2.3-11,3.3-16
		s2.1-9.7,3.9-14.3c1.7-4.6,4-9,7-13.1s6.7-7.8,10.9-11c-4.9,1.9-9.8,4.3-14.2,7.6c-3,2.2-5.8,4.7-8.4,7.4c0.1-3.8-0.1-7.5-0.7-11.2
		c-0.9-5.4-2.5-10.6-4.7-15.4c0.6,5.2,0.6,10.5-0.1,15.5s-2.2,9.8-4.2,14.2c-2,4.5-4.6,8.7-7.4,12.9s-6,8.4-9,13.6
		c-0.7,1.3-1.5,2.7-2.2,4.2c-0.3,0.8-0.7,1.5-1,2.4l-0.1,0.3l-0.1,0.2v0.1l0,0c0,0,0,0,0,0.1v0.1l-0.1,0.3c-0.1,0.4-0.3,0.9-0.4,1.3
		c-0.7,2.3-1.2,4.7-1.5,7.1c-8.4-2.3-17.2-3.6-26.3-3.6c-8.9,0-17.6,1.2-25.8,3.5c-0.3-2.4-0.8-4.7-1.4-6.9
		c-0.1-0.4-0.3-0.9-0.4-1.3L222,148v-0.1c0-0.1,0-0.1,0-0.1l0,0v-0.1l-0.1-0.2l-0.1-0.3c-0.3-0.9-0.6-1.6-1-2.4
		c-0.7-1.5-1.4-2.9-2.2-4.2c-3-5.2-6.1-9.4-9-13.6c-2.8-4.2-5.4-8.4-7.4-12.9s-3.5-9.2-4.2-14.2c-0.8-5-0.8-10.2-0.1-15.5
		c-2.2,4.8-3.8,10-4.7,15.4c-0.6,3.6-0.8,7.4-0.7,11.2c-2.6-2.7-5.4-5.3-8.4-7.4c-4.5-3.2-9.3-5.7-14.2-7.6c4.2,3.3,7.9,7,10.9,11
		c3,4.1,5.3,8.5,7,13.1s2.9,9.4,3.9,14.3c1,5,1.7,10.2,3.3,16c0.4,1.5,0.9,3,1.4,4.5c0.3,0.8,0.6,1.5,1,2.4l0.2,0.3l0.1,0.2v0.1l0,0
		c0,0,0,0,0.1,0.1v0.1l0.1,0.3c0.2,0.4,0.4,0.8,0.6,1.2c1.1,2,2.4,4,3.8,5.9c-15.4,8.6-28.2,21.4-37,36.7c-1.8-1.4-3.7-2.7-5.7-3.7
		c-0.4-0.2-0.8-0.4-1.2-0.6l-0.3-0.1H158c-0.1-0.1-0.1,0-0.1-0.1l0,0h-0.1l-0.2-0.1l-0.3-0.2c-0.8-0.4-1.6-0.7-2.4-1
		c-1.5-0.6-3-1-4.5-1.4c-5.8-1.6-11-2.3-16-3.3s-9.7-2.1-14.3-3.9c-4.6-1.7-9-4-13.1-7s-7.8-6.7-11-10.9c1.9,4.9,4.3,9.8,7.6,14.2
		c2.2,3,4.7,5.8,7.4,8.4c-3.8-0.1-7.5,0.1-11.2,0.7c-5.4,0.9-10.6,2.5-15.4,4.7c5.2-0.6,10.5-0.6,15.5,0.1c5,0.7,9.8,2.2,14.2,4.2
		c4.5,2,8.7,4.6,12.9,7.4c4.2,2.8,8.4,6,13.6,9c1.3,0.7,2.7,1.5,4.2,2.2c0.8,0.3,1.5,0.7,2.4,1l0.3,0.1l0.2,0.1h0.1l0,0
		c0,0,0,0,0.1,0h0.1l0.3,0.1c0.4,0.1,0.9,0.3,1.3,0.4c2.1,0.7,4.3,1.1,6.6,1.4c-2.4,8.4-3.6,17.2-3.6,26.3c0,9,1.2,17.6,3.5,25.9
		c-2.2,0.3-4.4,0.7-6.4,1.4c-0.4,0.1-0.9,0.3-1.3,0.4L148,278h-0.1c-0.1,0-0.1,0-0.1,0l0,0h-0.1l-0.2,0.1l-0.3,0.1
		c-0.9,0.3-1.6,0.6-2.4,1c-1.5,0.7-2.9,1.4-4.2,2.2c-5.2,3-9.4,6.1-13.6,9c-4.2,2.8-8.4,5.4-12.9,7.4s-9.2,3.5-14.2,4.2
		c-5,0.8-10.2,0.8-15.5,0.1c4.8,2.2,10,3.8,15.4,4.7c3.6,0.6,7.4,0.8,11.2,0.7c-2.7,2.6-5.3,5.4-7.4,8.4c-3.2,4.5-5.7,9.3-7.6,14.2
		c3.3-4.2,7-7.9,11-10.9c4.1-3,8.5-5.3,13.1-7s9.4-2.9,14.3-3.9c5-1,10.2-1.7,16-3.3c1.5-0.4,3-0.9,4.5-1.4c0.8-0.3,1.5-0.6,2.4-1
		l0.3-0.2l0.2-0.1h0.1l0,0c0,0,0,0,0.1-0.1h0.1l0.3-0.1c0.4-0.2,0.8-0.4,1.2-0.6c1.9-1,3.8-2.2,5.5-3.6
		c8.7,15.4,21.5,28.2,36.9,36.9c-1.3,1.7-2.6,3.6-3.6,5.5c-0.2,0.4-0.4,0.8-0.6,1.2l-0.1,0.3v0.1c-0.1,0.1,0,0.1-0.1,0.1l0,0v0.1
		l-0.1,0.2l-0.2,0.3c-0.4,0.8-0.7,1.6-1,2.4c-0.6,1.5-1,3-1.4,4.5c-1.6,5.8-2.3,11-3.3,16s-2.1,9.7-3.9,14.3c-1.7,4.6-4,9-7,13.1
		s-6.7,7.8-10.9,11c4.9-1.9,9.8-4.3,14.2-7.6c3-2.2,5.8-4.7,8.4-7.4c-0.1,3.8,0.1,7.5,0.7,11.2c0.9,5.4,2.5,10.6,4.7,15.4
		c-0.6-5.2-0.6-10.5,0.1-15.5c0.7-5,2.2-9.8,4.2-14.2c2-4.5,4.6-8.7,7.4-12.9c2.8-4.2,6-8.4,9-13.6c0.7-1.3,1.5-2.7,2.2-4.2
		c0.3-0.8,0.7-1.5,1-2.4l0.1-0.3l0.1-0.2v-0.1l0,0c0,0,0,0,0-0.1v-0.1l0.1-0.3c0.1-0.4,0.3-0.9,0.4-1.3c0.6-2.1,1.1-4.3,1.4-6.4
		c8.2,2.3,16.9,3.5,25.9,3.5c9.1,0,18-1.3,26.3-3.6c0.3,2.2,0.7,4.5,1.4,6.6c0.1,0.4,0.3,0.9,0.4,1.3l0.1,0.3v0.1c0,0.1,0,0.1,0,0.1
		l0,0v0.1l0.1,0.2l0.1,0.3c0.3,0.9,0.6,1.6,1,2.4c0.7,1.5,1.4,2.9,2.2,4.2c3,5.2,6.1,9.4,9,13.6c2.8,4.2,5.4,8.4,7.4,12.9
		s3.5,9.2,4.2,14.2c0.8,5,0.8,10.2,0.1,15.5c2.2-4.8,3.8-10,4.7-15.4c0.6-3.6,0.8-7.4,0.7-11.2c2.6,2.7,5.4,5.2,8.4,7.4
		c4.5,3.2,9.3,5.7,14.2,7.6c-4.2-3.3-7.9-7-10.9-11c-3-4.1-5.3-8.5-7-13.1s-2.9-9.4-3.9-14.3c-1-5-1.7-10.2-3.3-16
		c-0.4-1.5-0.9-3-1.4-4.5c-0.3-0.8-0.6-1.5-1-2.4l-0.2-0.3l-0.1-0.2v-0.1l0,0c0,0,0,0-0.1-0.1v-0.1l-0.1-0.3
		c-0.2-0.4-0.4-0.8-0.6-1.2c-1.1-2-2.3-3.9-3.7-5.7c15.3-8.8,28.1-21.6,36.7-37c1.8,1.4,3.8,2.8,5.9,3.8c0.4,0.2,0.8,0.4,1.2,0.6
		l0.3,0.1h0.1c0.1,0.1,0.1,0,0.1,0.1l0,0h0.1l0.2,0.1l0.3,0.2c0.8,0.4,1.6,0.7,2.4,1c1.5,0.6,3,1,4.5,1.4c5.8,1.6,11,2.3,16,3.3
		s9.7,2.1,14.3,3.9c4.6,1.7,9,4,13.1,7s7.8,6.7,11,10.9C402.2,325.3,399.7,320.5,396.5,316z M250,328.3c-43.3,0-78.3-35.1-78.3-78.3
		c0-43.3,35.1-78.3,78.3-78.3c43.3,0,78.3,35.1,78.3,78.3C328.3,293.3,293.3,328.3,250,328.3z"/>
	<path class="st1" d="M412.4,245.1c-0.5-8-3-14.1-5.9-18.4c-2.9-4.4-6.3-7.1-9.7-9.3c-3.4-2.1-7-3.6-9.9-4.7
		c-2.9-1.1-5.2-1.7-5.8-1.9l0,0l0,0l0,0l0,0c-0.2,0.7-0.7,3-0.7,6.2c0,3.3,0.6,7.6,2.7,11.9c2,4.4,5.5,8.7,10.4,11.6
		C398.3,243.5,404.3,245,412.4,245.1L412.4,245.1C412.4,245.2,412.4,245.1,412.4,245.1L412.4,245.1L412.4,245.1z"/>
	<path class="st1" d="M373.2,320.4c-1.3-2.8-2.4-4.9-2.8-5.5l0,0l0,0l0,0l0,0c-0.6,0.4-2.6,1.6-4.9,3.9s-4.9,5.8-6.5,10.3
		s-2.2,10-0.9,15.5c1.3,5.5,4.6,10.9,10.1,16.6l0,0h0.4h0.4l0,0c5-6,7.5-12.1,8.5-17.2c1-5.2,0.4-9.5-0.5-13.4
		C376,326.8,374.4,323.2,373.2,320.4z"/>
	<path class="st1" d="M459.3,279.2v0.1c-7.9-1.5-14-1.1-19,0.3s-8.8,3.9-12,6.7c-6.3,5.7-9.5,12.9-10,14.2l0,0l0,0l0,0l0,0
		c1.3,0.5,8.7,3.4,17.6,2c4.5-0.7,9.3-2.6,13.6-6.3C453.8,292.5,457.3,286.9,459.3,279.2L459.3,279.2L459.3,279.2
		C459.3,279.1,459.3,279.2,459.3,279.2z"/>
	<path class="st1" d="M423.8,358.4c-0.4-5.6-2.4-10.4-5.1-14.1c-5.3-7.3-12.7-10.5-13.7-11.1l0,0l0,0h-0.1c-0.6,1.3-3.4,8.7-3,17.1
		c0.2,4.2,1.1,8.7,3.7,13.2c2.5,4.5,6.6,9.1,13.2,13.6C422.8,370.4,424.2,364,423.8,358.4z"/>
	<path class="st1" d="M418.6,377.5L418.6,377.5C418.6,377.4,418.6,377.5,418.6,377.5L418.6,377.5z"/>
	<path class="st1" d="M314.9,370.4c0.6,0.4,2.6,1.5,5.5,2.8c2.8,1.3,6.4,2.7,10.3,3.6s8.3,1.7,13.4,0.7s11.2-3.5,17.2-8.5l0,0v-0.4
		v-0.2v-0.1c-5.7-5.6-11.1-8.8-16.6-10.2c-5.5-1.4-11-0.8-15.5,0.8c-4.5,1.6-8,4.2-10.3,6.5C316.5,367.8,315.3,369.8,314.9,370.4
		L314.9,370.4L314.9,370.4L314.9,370.4L314.9,370.4z"/>
	<path class="st1" d="M245.1,412.3c-0.1-8-1.6-14.1-4.6-18.9c-2.9-4.8-7.2-8.3-11.6-10.4c-4.4-2.1-8.7-2.7-11.9-2.7
		c-3.3,0-5.6,0.5-6.2,0.7l0,0l0,0l0,0l0,0c0.2,0.7,0.8,2.9,1.9,5.8c1.1,2.9,2.6,6.4,4.7,9.9c2.1,3.4,4.9,6.8,9.3,9.7
		C231,409.3,237.1,411.9,245.1,412.3L245.1,412.3L245.1,412.3C245.1,412.4,245.2,412.4,245.1,412.3L245.1,412.3z"/>
	<path class="st1" d="M287.3,386.8c1.1-2.9,1.7-5.2,1.9-5.8l0,0l0,0l0,0l0,0c-0.7-0.2-3-0.7-6.2-0.7c-3.3,0-7.6,0.6-11.9,2.7
		c-4.4,2-8.7,5.5-11.6,10.4c-3,4.9-4.5,10.9-4.6,18.9l0,0l0,0l0,0l0,0c8-0.5,14.1-3,18.4-5.9c4.4-2.9,7.1-6.3,9.3-9.7
		C284.7,393.3,286.2,389.8,287.3,386.8z"/>
	<path class="st1" d="M220.4,440.3c-1.4-5-3.9-8.8-6.7-12c-5.7-6.3-12.9-9.5-14.2-10l0,0l0,0l0,0l0,0c-0.5,1.3-3.4,8.7-2,17.6
		c0.7,4.5,2.6,9.3,6.3,13.6c3.7,4.3,9.2,7.8,17,9.8h0.1l0,0h-0.1h-0.1C222.2,451.4,221.8,445.3,220.4,440.3z"/>
	<path class="st1" d="M166.7,404.7L166.7,404.7c-1.3-0.5-8.7-3.3-17.1-2.9c-4.2,0.2-8.7,1.2-13.2,3.7s-9.1,6.6-13.6,13.2l-0.1-0.1
		l-0.1-0.1l0,0l0.1,0.1c6.9,4.1,13.3,5.5,18.9,5.1c5.6-0.4,10.4-2.3,14.1-5c7.3-5.3,10.5-12.7,11-13.7l0,0v-0.2V404.7z"/>
	<path class="st1" d="M185.1,370.4L185.1,370.4L185.1,370.4L185.1,370.4L185.1,370.4c-0.4-0.6-1.6-2.6-3.9-4.9
		c-2.3-2.3-5.8-4.9-10.3-6.5s-10-2.2-15.5-0.9c-5.5,1.3-10.9,4.6-16.6,10.1l0,0v0.4v0.4l0,0c6,5,12.1,7.5,17.2,8.5
		c5.2,1,9.5,0.4,13.4-0.5s7.5-2.5,10.3-3.7C182.5,372,184.5,370.7,185.1,370.4z"/>
	<path class="st1" d="M300.5,418.3L300.5,418.3L300.5,418.3L300.5,418.3c-1.3,0.5-8.5,3.8-14.2,10.1c-2.9,3.1-5.3,7-6.7,12
		c-1.4,5-1.8,11.1-0.3,19h-0.1h-0.1l0,0h0.1c7.7-2,13.3-5.6,17-9.8c3.7-4.3,5.6-9.1,6.3-13.6C303.9,427,301,419.6,300.5,418.3
		L300.5,418.3z"/>
	<path class="st1" d="M377.4,418.7l-0.1,0.1c-4.5-6.6-9.1-10.7-13.6-13.2s-9-3.5-13.2-3.7c-8.4-0.4-15.8,2.4-17.1,2.9l0,0v0.2v0.2
		l0,0c0.5,1,3.7,8.4,11.1,13.7c3.7,2.7,8.4,4.7,14.1,5.1C364,424.2,370.5,422.8,377.4,418.7L377.4,418.7L377.4,418.7
		C377.5,418.6,377.4,418.7,377.4,418.7z"/>
	<path class="st1" d="M123.2,330.7c-0.9,3.9-1.2,8.3-0.2,13.4s4,11.1,8.9,17.1c5.5-5.7,8.7-11,10-16.5c1.4-5.5,0.8-11-0.9-15.5
		c-1.6-4.5-4.2-8-6.5-10.3s-4.3-3.6-4.9-3.9l0,0l0,0l0,0l0,0c-0.4,0.6-1.5,2.6-2.8,5.5C125.6,323.2,124.1,326.8,123.2,330.7z"/>
</g>
<g>
	<path d="M311.4,175c5.5,5.2,18.6,18.9,25.4,43c1.8,6.5,8.1,29.8,0.9,56.5c-10.7,39.7-42.1,53.9-46.2,55.7c0.7,2.7,1.3,5.4,2,8.2
		c7.3-3.3,19.7-10.1,31.1-24.2c5-6.2,21.9-27,23.2-58.6c0.9-20.6-5.1-36.3-7.9-43.7c-2.2-5.6-5.9-15.1-13.8-24.3
		C320.7,181.4,315.3,177.4,311.4,175z"/>
	<path d="M281.9,330.4c-1.4,1.1-1.7,3.1-1.7,3.3c-0.5,3.6,3,5.3,3.7,9.4c0.3,1.9,0.2,4.9-2.3,9c0.7-0.5,7.4-5.5,7.4-13.2
		c0-2.9-0.9-7.9-3.5-9C284.4,329.5,283,329.5,281.9,330.4z"/>
	<path d="M278.5,337.9c-1-0.3-2.4,0.6-2.8,1.9c-0.7,1.9,0.9,3.5,1.2,6.7c0.2,2.5-0.4,4.7-1,6.1c0.6-0.4,4.4-3.1,4.8-7.9
		C280.9,342.2,280.3,338.4,278.5,337.9z"/>
	<path d="M272.5,341.9c-0.7-0.2-1.6,0.4-2,1.3c-0.5,1.3,0.6,2.4,0.8,4.7c0.2,1.8-0.3,3.3-0.7,4.3c0.4-0.3,3.1-2.1,3.4-5.5
		C274.1,344.9,273.7,342.2,272.5,341.9z"/>
	<path d="M223.4,334.6c1.4,1.1,1.7,3.1,1.7,3.3c0.5,3.6-3,5.3-3.7,9.4c-0.3,1.9-0.2,4.9,2.3,9c-0.7-0.5-7.4-5.5-7.4-13.2
		c0-2.9,0.9-7.9,3.5-9C220.9,333.7,222.2,333.7,223.4,334.6z"/>
	<path d="M226.7,342.1c1-0.3,2.4,0.6,2.8,1.9c0.7,1.9-0.9,3.5-1.2,6.7c-0.2,2.5,0.4,4.7,1,6.1c-0.6-0.4-4.4-3.1-4.8-7.9
		C224.3,346.4,225,342.6,226.7,342.1z"/>
	<path d="M232.8,346.1c0.7-0.2,1.6,0.4,2,1.3c0.5,1.3-0.6,2.4-0.8,4.7c-0.2,1.8,0.3,3.3,0.7,4.3c-0.4-0.3-3.1-2.1-3.4-5.5
		C231.1,349,231.6,346.4,232.8,346.1z"/>
	<rect x="238" y="342.9" width="29.7" height="7.7"/>
	<path d="M213.8,340.9v7.5c-3.1-0.1-13.7-0.2-23.2,9.1c-8.7,8.5-11.1,19.7-12.3,25.4c-1,4.6-3.7,18,1.5,32.6
		c2.4,6.6,5.5,11.2,7.7,13.9c-2.1-1.1-5.2-3.2-8.1-6.9c-5.4-6.9-6.3-15.1-7-21c-1.6-13.9,1.6-24.9,2.6-28c1.5-4.7,6.4-20.1,19.7-28
		C202.6,340.7,209.9,340.6,213.8,340.9z"/>
	<path d="M296.9,266.3c-0.8-0.5-1.7-0.5-2.5,0c-7.4,5.3-15.7,7.5-23.5,6.3c-7.2-1.1-13.3-5.2-16.8-11.1c-0.4-0.7-0.8-1.4-1.1-2.2
		c1.6-4.3,2.5-9.3,2.6-14.2c0.2-5.7-0.7-11-2.5-15.5c0.2-0.3,0.3-0.5,0.5-0.8c3.2-4.8,8.4-7.4,10.1-8.3c2.3-1.1,3.6-1.4,5.8-1.8
		c1.8-0.3,4-0.7,7.5-1.7c4.2-1.2,9.4-2.8,14.9-6c3.9-2.3,7.5-5.4,10.9-9c1.8,11.8,1.6,23-0.5,32.7c-2.3,10.4-6.8,18.1-12.6,21.8
		c-7.4,4.6-20.5,4-24.6-3.4c-1.4-2.5-2.5-7.1-1.8-11.9c0.2-1.6,0.7-4.9,2.8-7.4c1.8-2.1,4-2.7,6.5-3.4c1.6-0.4,2.5-0.5,3.8-0.6
		c1.2-0.1,2.7-0.1,4.8-0.6c1.4-0.3,2.7-0.7,4.1-1.1c0.4,2,0.6,4.8-0.7,7.4c-0.1,0.2-2.5,4.8-6.1,4.3c-3-0.4-4.5-4-4.6-4.2
		c-0.7-1.5-2.2-2.1-3.4-1.3c-1.2,0.8-1.7,2.7-1.1,4.2c0.5,1.1,3.1,6.7,8.5,7.5c6.7,1,10.6-6.4,11.1-7.2c3.8-7.5,0.3-15.7,0.2-16
		c-0.6-1.4-1.9-2-3.1-1.5c-1.8,0.8-3.8,1.4-5.7,1.8c-1.9,0.4-3,0.5-4.2,0.5c-1.3,0.1-2.7,0.2-4.7,0.7c-2.9,0.8-6.1,1.7-8.9,5.1
		c-3.3,3.9-4,8.7-4.3,10.8c-0.8,5.7,0.2,12.2,2.6,16.5c2.8,5,8,8.1,14.7,8.9c5.8,0.6,12-0.6,16.5-3.5c14.8-9.2,20.9-36.7,14.9-66.9
		c-0.2-1.1-0.9-2-1.8-2.3s-1.9,0-2.5,0.9c-3.8,5-8.1,8.9-12.8,11.7c-5,3-9.7,4.4-13.8,5.6c-3.2,0.9-5.3,1.3-7,1.6
		c-2.3,0.4-4.2,0.8-7,2.2c-1.9,1-7.6,3.8-11.6,9.4c-4-5.6-9.7-8.4-11.6-9.4c-2.8-1.4-4.7-1.8-7-2.2c-1.7-0.3-3.8-0.7-7-1.6
		c-4.2-1.2-8.9-2.6-13.8-5.6c-4.7-2.8-9-6.8-12.8-11.7c-0.6-0.8-1.6-1.2-2.5-0.9s-1.6,1.2-1.8,2.3c-6,30.2,0.1,57.7,14.9,66.9
		c4.5,2.8,10.7,4.1,16.5,3.5c6.7-0.7,11.9-3.9,14.7-8.9c2.4-4.3,3.4-10.8,2.6-16.5c-0.3-2.1-1-6.9-4.3-10.8
		c-2.8-3.4-6.1-4.3-8.9-5.1c-2-0.6-3.4-0.6-4.7-0.7c-1.1-0.1-2.3-0.1-4.2-0.5s-3.8-1-5.7-1.8c-1.2-0.5-2.5,0.1-3.1,1.5
		c-0.1,0.3-3.6,8.5,0.2,16c0.4,0.8,3.8,7.3,9.8,7.3c0.4,0,0.8,0,1.3-0.1c5.4-0.8,8-6.4,8.5-7.5c0.7-1.5,0.2-3.4-1.1-4.2
		c-1.2-0.8-2.8-0.2-3.4,1.3c-0.1,0.2-1.6,3.7-4.6,4.2c-3.6,0.5-6-4.1-6.1-4.3c-1.3-2.6-1.1-5.4-0.7-7.4c1.3,0.5,2.7,0.8,4.1,1.1
		c2.2,0.5,3.6,0.5,4.8,0.6s2.2,0.1,3.8,0.6c2.5,0.7,4.7,1.3,6.5,3.4c2.1,2.5,2.6,5.8,2.8,7.4c0.7,4.7-0.4,9.4-1.8,11.9
		c-4.1,7.3-17.2,8-24.6,3.4c-5.8-3.6-10.3-11.4-12.6-21.8c-2.1-9.7-2.3-20.9-0.5-32.7c3.4,3.7,7,6.7,10.9,9c5.5,3.3,10.7,4.8,14.9,6
		c3.4,1,5.7,1.4,7.5,1.7c2.2,0.4,3.6,0.7,5.8,1.8c1.7,0.8,6.9,3.4,10.1,8.3c0.2,0.3,0.3,0.5,0.5,0.8c-1.8,4.5-2.7,9.8-2.5,15.5
		c0.1,5,1.1,9.9,2.6,14.2c-0.4,0.8-0.7,1.5-1.1,2.2c-3.5,5.9-9.6,10-16.8,11.1c-7.8,1.2-16.1-1-23.5-6.3c-0.8-0.6-1.7-0.6-2.5,0
		c-0.8,0.5-1.3,1.5-1.3,2.6c-0.2,6.2,0.2,12.5,1.2,18.6c0.9,5.5,2.2,10.9,4,16.1c0.4,1.2,1.4,1.9,2.4,1.9c0.3,0,0.7-0.1,1-0.2
		c1.3-0.7,1.9-2.5,1.4-4.1c-1.6-4.8-2.9-9.8-3.7-14.9c-0.6-4-1-8.1-1.1-12.1c7.4,4.2,15.4,5.9,22.9,4.7c8.4-1.3,15.8-6.2,20.1-13.4
		c4.4,7.2,11.7,12.1,20.1,13.4c7.5,1.2,15.5-0.5,22.9-4.7c-0.1,4.1-0.5,8.1-1.1,12.1c-0.8,5.1-2,10.1-3.7,14.9
		c-0.5,1.6,0.1,3.4,1.4,4.1c0.3,0.2,0.7,0.2,1,0.2c1,0,1.9-0.7,2.4-1.9c1.8-5.2,3.1-10.6,4-16.1c1-6.1,1.4-12.4,1.2-18.6
		C298.2,267.8,297.7,266.8,296.9,266.3z M250.1,238.7c0.5,3.4,0.5,7,0,10.4C249.7,245.6,249.7,242.1,250.1,238.7z"/>
</g>
</svg>
